nColumns=28
nRows=80
DataType=double
version=3
OpenSimVersion=4.1
endheader
time	ground_force_1_vx	ground_force_1_vy	ground_force_1_vz	ground_force_1_px	ground_force_1_py	ground_force_1_pz	ground_force_1_mx	ground_force_1_my	ground_force_1_mz	ground_force_2_vx	ground_force_2_vy	ground_force_2_vz	ground_force_2_px	ground_force_2_py	ground_force_2_pz	ground_force_2_mx	ground_force_2_my	ground_force_2_mz	ground_force_3_vx	ground_force_3_vy	ground_force_3_vz	ground_force_3_px	ground_force_3_py	ground_force_3_pz	ground_force_3_mx	ground_force_3_my	ground_force_3_mz
0	-3.70125	295.16	-58.2735	-0.205832	0.006	-0.435499	0	-1.52466	0	0.881453	319.367	58.7533	-0.219774	0.006	-0.987185	0	1.39119	0	0	0	0	0	0	0	0	0	0
0.01	-3.76278	294.924	-58.2946	-0.205558	0.006	-0.435533	0	-1.5411	0	0.839697	319.645	58.8228	-0.219504	0.006	-0.987126	0	1.36668	0	0	0	0	0	0	0	0	0	0
0.02	-3.84631	294.646	-58.3069	-0.205235	0.006	-0.435559	0	-1.55591	0	0.783479	319.964	58.9117	-0.219204	0.006	-0.987091	0	1.34255	0	0	0	0	0	0	0	0	0	0
0.03	-3.95301	294.33	-58.3092	-0.204867	0.006	-0.435577	0	-1.5684	0	0.711412	320.32	59.0205	-0.21888	0.006	-0.987085	0	1.31955	0	0	0	0	0	0	0	0	0	0
0.04	-4.08257	293.98	-58.3017	-0.20446	0.006	-0.435585	0	-1.57817	0	0.62264	320.706	59.1484	-0.218532	0.006	-0.987112	0	1.29813	0	0	0	0	0	0	0	0	0	0
0.05	-4.23316	293.602	-58.2857	-0.20402	0.006	-0.435583	0	-1.58518	0	0.516765	321.117	59.2927	-0.218165	0.006	-0.987172	0	1.27848	0	0	0	0	0	0	0	0	0	0
0.06	-4.40142	293.207	-58.2636	-0.203557	0.006	-0.435572	0	-1.58961	0	0.393423	321.543	59.4498	-0.217781	0.006	-0.987265	0	1.26061	0	0	0	0	0	0	0	0	0	0
0.07	-4.58315	292.806	-58.2385	-0.203081	0.006	-0.435553	0	-1.59174	0	0.252585	321.975	59.6149	-0.217379	0.006	-0.987388	0	1.24437	0	0	0	0	0	0	0	0	0	0
0.08	-4.77395	292.41	-58.2138	-0.202603	0.006	-0.435527	0	-1.59186	0	0.0945868	322.406	59.783	-0.216963	0.006	-0.987538	0	1.22956	0	0	0	0	0	0	0	0	0	0
0.09	-4.96945	292.032	-58.1931	-0.202132	0.006	-0.435499	0	-1.59036	0	-0.07977	322.825	59.9488	-0.216534	0.006	-0.987711	0	1.21598	0	0	0	0	0	0	0	0	0	0
0.1	-5.16568	291.682	-58.1793	-0.201677	0.006	-0.43547	0	-1.58764	0	-0.268659	323.225	60.1075	-0.216096	0.006	-0.987904	0	1.20343	0	0	0	0	0	0	0	0	0	0
0.11	-5.35922	291.37	-58.1743	-0.201247	0.006	-0.435444	0	-1.584	0	-0.469187	323.606	60.2561	-0.215655	0.006	-0.98811	0	1.19177	0	0	0	0	0	0	0	0	0	0
0.12	-5.54721	291.102	-58.1789	-0.200846	0.006	-0.435424	0	-1.57951	0	-0.67744	323.973	60.3929	-0.215216	0.006	-0.988326	0	1.18092	0	0	0	0	0	0	0	0	0	0
0.13	-5.72791	290.875	-58.1923	-0.200479	0.006	-0.43541	0	-1.57409	0	-0.889061	324.34	60.5185	-0.214787	0.006	-0.988545	0	1.17078	0	0	0	0	0	0	0	0	0	0
0.14	-5.90114	290.681	-58.212	-0.200146	0.006	-0.435404	0	-1.56745	0	-1.09981	324.728	60.6351	-0.214377	0.006	-0.988765	0	1.16134	0	0	0	0	0	0	0	0	0	0
0.15	-6.06786	290.497	-58.2325	-0.199845	0.006	-0.435404	0	-1.55919	0	-1.30587	325.166	60.7477	-0.213994	0.006	-0.988981	0	1.15257	0	0	0	0	0	0	0	0	0	0
0.16	-6.22989	290.285	-58.2447	-0.199575	0.006	-0.435413	0	-1.54886	0	-1.50377	325.692	60.864	-0.213644	0.006	-0.989191	0	1.14436	0	0	0	0	0	0	0	0	0	0
0.17	-6.38973	289.989	-58.2345	-0.199329	0.006	-0.43543	0	-1.53594	0	-1.68996	326.35	60.9951	-0.213335	0.006	-0.98939	0	1.13651	0	0	0	0	0	0	0	0	0	0
0.18	-6.54984	289.534	-58.183	-0.1991	0.006	-0.435457	0	-1.51997	0	-1.86118	327.198	61.1552	-0.213071	0.006	-0.989575	0	1.12877	0	0	0	0	0	0	0	0	0	0
0.19	-6.7125	288.827	-58.0654	-0.198879	0.006	-0.435495	0	-1.50062	0	-2.01516	328.304	61.3622	-0.212859	0.006	-0.989744	0	1.12088	0	0	0	0	0	0	0	0	0	0
0.2	-6.8799	287.757	-57.8516	-0.198659	0.006	-0.435546	0	-1.47763	0	-2.15161	329.743	61.6377	-0.212705	0.006	-0.989895	0	1.11252	0	0	0	0	0	0	0	0	0	0
0.21	-7.05426	286.198	-57.5063	-0.198427	0.006	-0.435612	0	-1.4508	0	-2.27277	331.6	62.006	-0.212614	0.006	-0.990024	0	1.10334	0	0	0	0	0	0	0	0	0	0
0.22	-7.23793	284.009	-56.9894	-0.198174	0.006	-0.435696	0	-1.42002	0	-2.38321	333.962	62.494	-0.212593	0.006	-0.990131	0	1.09303	0	0	0	0	0	0	0	0	0	0
0.23	-7.43345	281.043	-56.2581	-0.197887	0.006	-0.435805	0	-1.38531	0	-2.48961	336.913	63.1306	-0.21265	0.006	-0.990214	0	1.08128	0	0	0	0	0	0	0	0	0	0
0.24	-7.64306	277.143	-55.2684	-0.197557	0.006	-0.435944	0	-1.34687	0	-2.60067	340.527	63.9466	-0.212789	0.006	-0.990275	0	1.06782	0	0	0	0	0	0	0	0	0	0
0.25	-7.86832	272.158	-53.9775	-0.197172	0.006	-0.43612	0	-1.30488	0	-2.72714	344.867	64.9734	-0.213011	0.006	-0.990316	0	1.05228	0	0	0	0	0	0	0	0	0	0
0.26	-8.10944	265.948	-52.3466	-0.196722	0.006	-0.436341	0	-1.25963	0	-2.88166	349.972	66.2414	-0.213316	0.006	-0.99034	0	1.03416	0	0	0	0	0	0	0	0	0	0
0.27	-8.36531	258.399	-50.3441	-0.1962	0.006	-0.436616	0	-1.21144	0	-3.07878	355.85	67.7782	-0.213702	0.006	-0.990353	0	1.01293	0	0	0	0	0	0	0	0	0	0
0.28	-8.63355	249.429	-47.9492	-0.195599	0.006	-0.436957	0	-1.16073	0	-3.33507	362.472	69.6063	-0.214164	0.006	-0.990361	0	0.988094	0	0	0	0	0	0	0	0	0	0
0.29	-8.91053	239.009	-45.1558	-0.194915	0.006	-0.437375	0	-1.10807	0	-3.66803	369.762	71.7407	-0.214695	0.006	-0.990368	0	0.959064	0	0	0	0	0	0	0	0	0	0
0.3	-9.19167	227.169	-41.9757	-0.194145	0.006	-0.437886	0	-1.05409	0	-4.09492	377.602	74.187	-0.215287	0.006	-0.990379	0	0.925246	0	0	0	0	0	0	0	0	0	0
0.31	-9.47197	214.01	-38.4412	-0.193286	0.006	-0.43851	0	-0.999449	0	-4.63142	385.831	76.9403	-0.215938	0.006	-0.9904	0	0.886141	0	0	0	0	0	0	0	0	0	0
0.32	-9.74626	199.707	-34.6052	-0.192332	0.006	-0.439269	0	-0.944794	0	-5.2902	394.247	79.9835	-0.216644	0.006	-0.990432	0	0.841507	0	0	0	0	0	0	0	0	0	0
0.33	-10.0084	184.501	-30.5408	-0.191278	0.006	-0.440191	0	-0.890689	0	-6.07906	402.619	83.2863	-0.217407	0.006	-0.990479	0	0.791457	0	0	0	0	0	0	0	0	0	0
0.34	-10.2492	168.69	-26.3368	-0.190117	0.006	-0.44131	0	-0.837589	0	-6.99903	410.695	86.8036	-0.218233	0.006	-0.990541	0	0.736655	0	0	0	0	0	0	0	0	0	0
0.35	-10.4549	152.611	-22.092	-0.188845	0.006	-0.442667	0	-0.785833	0	-8.04286	418.224	90.4764	-0.219136	0.006	-0.990615	0	0.67865	0	0	0	0	0	0	0	0	0	0
0.36	-10.6059	136.62	-17.9072	-0.187467	0.006	-0.444308	0	-0.735658	0	-9.19336	424.973	94.236	-0.220133	0.006	-0.990697	0	0.61984	0	0	0	0	0	0	0	0	0	0
0.37	-10.6769	121.085	-13.8802	-0.186019	0.006	-0.446293	0	-0.687197	0	-10.4232	430.747	98.0075	-0.221246	0.006	-0.990782	0	0.563371	0	0	0	0	0	0	0	0	0	0
0.38	-10.6372	106.37	-10.1021	-0.184588	0.006	-0.448694	0	-0.640302	0	-11.6957	435.382	101.712	-0.222499	0.006	-0.99086	0	0.513241	0	0	0	0	0	0	0	0	0	0
0.39	-10.4513	92.8293	-6.65491	-0.183359	0.006	-0.451583	0	-0.59419	0	-12.9669	438.753	105.265	-0.223914	0.006	-0.990924	0	0.474425	0	0	0	0	0	0	0	0	0	0
0.4	-10.0807	80.7936	-3.6108	-0.182664	0.006	-0.45501	0	-0.546934	0	-14.188	440.767	108.582	-0.225509	0.006	-0.990965	0	0.452281	0	0	0	0	0	0	0	0	0	0
0.41	-9.48814	70.5616	-1.03167	-0.18305	0.006	-0.458948	0	-0.494835	0	-15.3082	441.361	111.579	-0.227293	0.006	-0.990974	0	0.45176	0	0	0	0	0	0	0	0	0	0
0.42	-8.63999	62.3915	1.02994	-0.185275	0.006	-0.463216	0	-0.432411	0	-16.2775	440.495	114.176	-0.22927	0.006	-0.990942	0	0.476933	0	0	0	0	0	0	0	0	0	0
0.43	-7.51108	56.4978	2.52964	-0.190172	0.006	-0.467396	0	-0.354188	0	-17.0501	438.135	116.292	-0.231436	0.006	-0.990858	0	0.530668	0	0	0	0	0	0	0	0	0	0
0.44	-6.08924	53.0491	3.43118	-0.198265	0.006	-0.470833	0	-0.258414	0	-17.5864	434.245	117.847	-0.233779	0.006	-0.990716	0	0.614468	0	0	0	0	0	0	0	0	0	0
0.45	-4.37868	52.1663	3.7071	-0.209275	0.006	-0.472829	0	-0.150908	0	-17.8515	428.777	118.762	-0.236285	0.006	-0.990507	0	0.728262	0	0	0	0	0	0	0	0	0	0
0.46	-2.40025	53.9222	3.33964	-0.221958	0.006	-0.472977	0	-0.044637	0	-17.8129	421.666	118.961	-0.238938	0.006	-0.990226	0	0.870285	0	0	0	0	0	0	0	0	0	0
0.47	-0.188762	58.3412	2.32085	-0.234588	0.006	-0.4714	0	0.046332	0	-17.4434	412.82	118.367	-0.241725	0.006	-0.989867	0	1.03734	0	0	0	0	0	0	0	0	0	0
0.48	2.21096	65.4036	0.652171	-0.24575	0.006	-0.468626	0	0.113657	0	-16.7278	402.123	116.905	-0.244631	0.006	-0.989427	0	1.22506	0	0	0	0	0	0	0	0	0	0
0.49	4.74697	75.0529	-1.65524	-0.254761	0.006	-0.465286	0	0.156818	0	-15.6721	389.46	114.51	-0.247647	0.006	-0.988903	0	1.42829	0	0	0	0	0	0	0	0	0	0
0.5	7.36033	87.201	-4.57982	-0.261586	0.006	-0.461871	0	0.180786	0	-14.3089	374.761	111.137	-0.250769	0.006	-0.98829	0	1.64108	0	0	0	0	0	0	0	0	0	0
0.51	9.9855	101.731	-8.09102	-0.266527	0.006	-0.45867	0	0.19267	0	-12.6952	358.067	106.791	-0.253996	0.006	-0.987581	0	1.85681	0	0	0	0	0	0	0	0	0	0
0.52	12.5536	118.499	-12.1519	-0.26998	0.006	-0.455806	0	0.199245	0	-10.9031	339.582	101.532	-0.257329	0.006	-0.986766	0	2.06851	0	0	0	0	0	0	0	0	0	0
0.53	14.9958	137.336	-16.7157	-0.272307	0.006	-0.453303	0	0.205974	0	-9.00804	319.686	95.4842	-0.260775	0.006	-0.98583	0	2.2692	0	0	0	0	0	0	0	0	0	0
0.54	17.2463	158.027	-21.717	-0.2738	0.006	-0.451141	0	0.216918	0	-7.0803	298.9	88.8165	-0.264336	0.006	-0.984758	0	2.45223	0	0	0	0	0	0	0	0	0	0
0.55	19.2469	180.313	-27.0664	-0.274679	0.006	-0.449289	0	0.234806	0	-5.17853	277.814	81.7236	-0.268008	0.006	-0.983531	0	2.61112	0	0	0	0	0	0	0	0	0	0
0.56	20.9494	203.894	-32.652	-0.275102	0.006	-0.447709	0	0.261166	0	-3.34379	256.999	74.3977	-0.271774	0.006	-0.982127	0	2.73987	0	0	0	0	0	0	0	0	0	0
0.57	22.3135	228.444	-38.3504	-0.275184	0.006	-0.446365	0	0.296468	0	-1.59617	236.932	67.0045	-0.275605	0.006	-0.980529	0	2.8336	0	0	0	0	0	0	0	0	0	0
0.58	23.3066	253.634	-44.0392	-0.275006	0.006	-0.445224	0	0.339905	0	0.0641577	217.941	59.6661	-0.27946	0.006	-0.978719	0	2.88908	0	0	0	0	0	0	0	0	0	0
0.59	23.9061	279.143	-49.605	-0.274627	0.006	-0.444259	0	0.389385	0	1.6468	200.214	52.4648	-0.283292	0.006	-0.976682	0	2.90504	0	0	0	0	0	0	0	0	0	0
0.6	24.1042	304.676	-54.9452	-0.27409	0.006	-0.443446	0	0.441939	0	3.15798	183.833	45.4629	-0.28705	0.006	-0.974404	0	2.88253	0	0	0	0	0	0	0	0	0	0
0.61	23.9093	329.969	-59.9675	-0.273429	0.006	-0.442768	0	0.494151	0	4.59428	168.826	38.7201	-0.29068	0.006	-0.971879	0	2.82489	0	0	0	0	0	0	0	0	0	0
0.62	23.3444	354.792	-64.593	-0.27267	0.006	-0.44221	0	0.542371	0	5.94396	155.204	32.3003	-0.294129	0.006	-0.969109	0	2.73778	0	0	0	0	0	0	0	0	0	0
0.63	22.4446	378.924	-68.7578	-0.271834	0.006	-0.441759	0	0.582926	0	7.19164	142.974	26.2699	-0.29734	0.006	-0.966113	0	2.62867	0	0	0	0	0	0	0	0	0	0
0.64	21.2553	402.142	-72.4107	-0.27094	0.006	-0.441404	0	0.612485	0	8.32265	132.145	20.689	-0.30026	0.006	-0.962925	0	2.50574	0	0	0	0	0	0	0	0	0	0
0.65	19.8334	424.198	-75.5102	-0.270002	0.006	-0.441134	0	0.628432	0	9.32761	122.717	15.6029	-0.302841	0.006	-0.959602	0	2.37671	0	0	0	0	0	0	0	0	0	0
0.66	18.2455	444.821	-78.0229	-0.269037	0.006	-0.44094	0	0.62909	0	10.2053	114.669	11.0385	-0.305044	0.006	-0.956222	0	2.2484	0	0	0	0	0	0	0	0	0	0
0.67	16.5631	463.74	-79.9243	-0.268054	0.006	-0.440814	0	0.613718	0	10.9634	107.953	7.00023	-0.306842	0.006	-0.952881	0	2.12628	0	0	0	0	0	0	0	0	0	0
0.68	14.8523	480.727	-81.201	-0.267061	0.006	-0.440749	0	0.582472	0	11.6173	102.489	3.46801	-0.308232	0.006	-0.949677	0	2.01434	0	0	0	0	0	0	0	0	0	0
0.69	13.1696	495.642	-81.852	-0.26606	0.006	-0.440741	0	0.536188	0	12.1872	98.1702	0.402249	-0.30923	0.006	-0.946701	0	1.91508	0	0	0	0	0	0	0	0	0	0
0.7	11.5617	508.467	-81.8911	-0.26505	0.006	-0.440787	0	0.476152	0	12.691	94.8707	-2.24422	-0.309877	0.006	-0.944026	0	1.82968	0	0	0	0	0	0	0	0	0	0
0.71	10.0641	519.288	-81.3481	-0.264026	0.006	-0.440885	0	0.403934	0	13.1391	92.4601	-4.51536	-0.31023	0.006	-0.941702	0	1.75817	0	0	0	0	0	0	0	0	0	0
0.72	8.70162	528.245	-80.2685	-0.262979	0.006	-0.441031	0	0.321345	0	13.5333	90.8168	-6.44707	-0.310354	0.006	-0.939757	0	1.69983	0	0	0	0	0	0	0	0	0	0
0.73	7.49319	535.482	-78.7098	-0.261902	0.006	-0.441221	0	0.230409	0	13.8707	89.837	-8.06668	-0.310315	0.006	-0.938195	0	1.65352	0	0	0	0	0	0	0	0	0	0
0.74	6.45594	541.113	-76.7349	-0.260784	0.006	-0.441447	0	0.133262	0	14.147	89.4334	-9.39395	-0.310174	0.006	-0.937012	0	1.61783	0	0	0	0	0	0	0	0	0	0
0.75	5.60239	545.243	-74.4096	-0.259615	0.006	-0.441703	0	0.031871	0	14.3583	89.5266	-10.4443	-0.309984	0.006	-0.936189	0	1.59128	0	0	0	0	0	0	0	0	0	0
0.76	4.92953	547.999	-71.8	-0.258379	0.006	-0.441983	0	-0.072256	0	14.5028	90.0366	-11.2346	-0.309787	0.006	-0.935694	0	1.57228	0	0	0	0	0	0	0	0	0	0
0.77	4.41308	549.555	-68.968	-0.257058	0.006	-0.442281	0	-0.178251	0	14.5808	90.8779	-11.7876	-0.309612	0.006	-0.935489	0	1.55926	0	0	0	0	0	0	0	0	0	0
0.78	4.01454	550.127	-65.9681	-0.255634	0.006	-0.442594	0	-0.285817	0	14.5935	91.9585	-12.1322	-0.309478	0.006	-0.935526	0	1.55086	0	0	0	0	0	0	0	0	0	0
0.79	3.68995	549.982	-62.8475	-0.254093	0.006	-0.442921	0	-0.395238	0	14.5421	93.1866	-12.2999	-0.309392	0.006	-0.935753	0	1.54601	0	0	0	0	0	0	0	0	0	0
